<?xml version="1.0" encoding="UTF-8" standalone="no"?>
<!DOCTYPE svg PUBLIC "-//W3C//DTD SVG 1.1//EN" "http://www.w3.org/Graphics/SVG/1.1/DTD/svg11.dtd">
<svg width="100%" height="100%" viewBox="0 0 720 332" version="1.1" xmlns="http://www.w3.org/2000/svg" xmlns:xlink="http://www.w3.org/1999/xlink" xml:space="preserve" xmlns:serif="http://www.serif.com/" style="fill-rule:evenodd;clip-rule:evenodd;stroke-linejoin:round;stroke-miterlimit:2;">
    <g transform="matrix(1.44,0,0,1.44,0,0)">
        <g transform="matrix(0.29387,0,0,0.29387,-1142.8,-693.834)">
            <g transform="matrix(1.38889,0,0,1.38889,4859.25,3054.27)">
                <path d="M0,-0.004C0,-21.818 16.52,-36.532 38.229,-36.532C55.275,-36.532 64.488,-26.899 69.04,-17.689L53.369,-10.172C51.041,-15.781 45.004,-20.444 38.229,-20.444C26.686,-20.444 18.532,-11.652 18.532,-0.004C18.532,11.539 26.686,20.43 38.229,20.43C45.004,20.43 51.041,15.772 53.369,10.16L69.04,17.575C64.488,26.57 55.275,36.528 38.229,36.528C16.52,36.528 0,21.705 0,-0.004" style="fill:rgb(213,42,42);fill-rule:nonzero;"/>
            </g>
            <g transform="matrix(1.38889,0,0,1.38889,5060.71,3054.27)">
                <path d="M0,-0.004C0,-11.544 -7.516,-20.444 -19.168,-20.444C-30.814,-20.444 -38.438,-11.544 -38.438,-0.004C-38.438,11.432 -30.814,20.43 -19.168,20.43C-7.516,20.43 0,11.432 0,-0.004M-56.969,-0.004C-56.969,-21.502 -40.769,-36.532 -19.168,-36.532C2.435,-36.532 18.533,-21.502 18.533,-0.004C18.533,21.491 2.435,36.528 -19.168,36.528C-40.769,36.528 -56.969,21.491 -56.969,-0.004" style="fill:rgb(213,42,42);fill-rule:nonzero;"/>
            </g>
            <g transform="matrix(1.38889,0,0,1.38889,5188.19,3054.27)">
                <path d="M0,-0.109C0,-11.011 -6.566,-19.484 -19.484,-19.484L-31.025,-19.484L-31.025,19.375L-19.594,19.375C-7.202,19.375 0,10.377 0,-0.109M-49.241,35.26L-49.241,-35.369L-19.594,-35.369C2.646,-35.369 18.637,-22.027 18.637,-0.109C18.637,21.812 2.646,35.26 -19.484,35.26L-49.241,35.26Z" style="fill:rgb(213,42,42);fill-rule:nonzero;"/>
            </g>
            <g transform="matrix(1.38889,0,0,1.38889,5247.28,3005.14)">
                <path d="M0,70.629L0,0L51.778,0L51.778,15.885L18.218,15.885L18.218,26.894L51.041,26.894L51.041,42.78L18.218,42.78L18.218,54.744L51.778,54.744L51.778,70.629L0,70.629Z" style="fill:rgb(213,42,42);fill-rule:nonzero;"/>
            </g>
            <g transform="matrix(1.38889,0,0,1.38889,4756.64,2529.3)">
                <path d="M0,320.838C-0.053,320.616 -0.113,320.397 -0.185,320.178C0.262,320.67 0.305,321.01 0,320.838M-618.184,385.791C-618.021,385.912 -617.854,386.028 -617.687,386.142C-617.309,387.137 -617.789,387.106 -618.184,385.791M-389.502,-104.983C-389.57,-105.262 -389.649,-105.534 -389.743,-105.804C-389.189,-105.221 -389.146,-104.806 -389.502,-104.983M-18.954,311.181C-37.323,328.199 -59.146,340.835 -81.662,351.53C-105.261,362.745 -129.839,372.249 -154.713,380.215C-181.751,388.869 -209.44,395.405 -237.338,400.612C-264.95,405.762 -292.887,409.853 -320.995,410.615C-346.603,411.308 -374.104,409.559 -398.111,399.91C-407.422,396.167 -416.043,390.794 -423.372,383.935C-430.799,376.983 -434.272,367.516 -436.147,357.668C-441.178,331.265 -429.038,305.674 -419.012,281.948C-413.68,269.334 -408.572,256.666 -403.542,243.932C-398.895,232.17 -393.808,220.586 -390.542,208.336C-386.403,192.798 -386.593,176.665 -395.401,162.808C-403.272,150.425 -412.813,141.603 -426.749,136.589C-441.246,131.371 -457.658,129.926 -472.518,134.287C-479.947,136.467 -486.728,140.146 -492.942,144.673C-472.435,98.49 -451.926,52.309 -431.404,6.136C-419.233,-21.255 -407.056,-48.643 -394.876,-76.028C-392.062,-82.362 -388.95,-88.644 -386.448,-95.106C-384.982,-98.893 -386.798,-102.555 -388.854,-105.654C-392.462,-111.08 -398.46,-120.892 -406.357,-116.325C-408.297,-115.2 -409.187,-112.918 -410.044,-110.996C-411.516,-107.69 -412.983,-104.384 -414.455,-101.08C-417.64,-93.922 -420.82,-86.761 -424.005,-79.6C-430.128,-65.833 -436.25,-52.062 -442.371,-38.292C-454.61,-10.751 -466.85,16.791 -479.087,44.334C-503.558,99.419 -528.017,154.51 -552.476,209.603C-558.591,223.376 -564.706,237.147 -570.818,250.919C-576.772,264.336 -583.508,277.359 -589.762,290.634C-602.062,316.743 -613.171,343.397 -623.811,370.217C-625.239,373.812 -625.348,376.511 -623.228,379.817C-620.873,383.488 -618.396,387.738 -614.889,390.444C-612.375,392.383 -609.065,393.047 -605.998,392.412C-600.752,391.322 -599.21,384.017 -597.389,379.924C-591.311,366.226 -585.229,352.528 -579.147,338.829C-573.083,325.167 -567.459,311.183 -560.843,297.779C-548.295,272.337 -535.177,247.043 -520.12,222.982C-512.8,211.29 -504.861,199.987 -496.204,189.248C-489.554,180.996 -482.166,173.251 -473.205,167.496C-465.063,162.267 -455.715,159.688 -446.074,159.625C-435.838,159.557 -423.609,161.951 -415.549,168.643C-415.398,169.035 -415.259,169.431 -415.12,169.824C-414.388,171.92 -414.072,174.134 -413.855,176.329C-413.41,180.891 -414.013,185.533 -414.858,190.007C-417.092,201.815 -421.897,213.259 -425.976,224.506C-430.938,238.192 -436.18,251.777 -441.479,265.339C-446.558,278.328 -452.858,290.869 -457.304,304.099C-465.081,327.249 -464.038,353.633 -453.397,375.69C-444.014,395.138 -428.626,411.315 -409.51,421.256C-388.008,432.439 -363.131,436.399 -339.215,438.012C-284.073,441.73 -228.539,429.92 -175.369,416.529C-128.854,404.817 -82.512,389.265 -41.163,364.55C-33.022,359.682 -25.146,354.374 -17.553,348.689C-13.818,345.887 -10.186,342.946 -6.623,339.931C-3.479,337.264 0.395,334.526 2.568,330.976C6.085,325.237 -0.679,317.935 -3.902,313.839C-7.802,308.885 -13.679,306.724 -18.954,311.181" style="fill:rgb(36,47,58);fill-rule:nonzero;"/>
            </g>
            <g transform="matrix(1.38889,0,0,1.38889,5106.67,2746.22)">
                <path d="M0,-20.962C-1.553,-22.853 -0.92,-23.137 0,-20.962M-101.557,125.259C-101.357,125.391 -101.153,125.514 -100.94,125.628C-100.523,126.818 -101.174,126.864 -101.557,125.259M-407.842,164.514C-407.624,164.651 -407.402,164.781 -407.172,164.9C-406.942,165.742 -407.507,165.669 -407.842,164.514M-483.388,176.39C-483.185,176.539 -482.98,176.682 -482.771,176.822C-482.455,177.805 -482.979,177.805 -483.388,176.39M-593.04,31.336C-593.185,31.223 -593.332,31.107 -593.482,31.001C-593.554,30.644 -593.313,30.746 -593.04,31.336M-622.623,172.562C-620.092,175.567 -621.45,175.112 -622.623,172.562M-127.907,-20.87C-128.09,-20.993 -128.276,-21.112 -128.466,-21.22C-128.669,-22.004 -128.24,-21.993 -127.907,-20.87M-242.15,119.63C-243.854,118.342 -243.75,117.192 -242.15,119.63M-231.957,123.484C-234.077,123.259 -236.129,122.57 -238.113,121.822C-239.284,121.378 -240.376,120.799 -241.424,120.124C-242.318,117.21 -242.54,114.06 -242.591,111.057C-242.728,103.198 -241.27,94.097 -238.205,86.852C-229.359,65.937 -220.83,44.218 -205.847,26.832C-192.879,11.787 -175.932,0.727 -156.613,3.497C-168.798,31.391 -180.984,59.288 -193.167,87.184C-199.763,102.638 -211.889,125.606 -231.957,123.484M103.378,-5.192C93.679,16.958 79.005,36.676 61.57,53.347C59.668,40.436 65.002,25.834 69.936,14.735C76.395,0.198 85.3,-14.596 96.895,-25.645C99.803,-28.415 102.907,-31.005 106.428,-32.966C107.967,-33.82 109.625,-34.357 111.381,-34.493C111.402,-34.496 111.424,-34.493 111.445,-34.493C112.634,-24.76 106.949,-13.343 103.378,-5.192M346.421,-183.321C344.643,-189.602 340.695,-195.123 336.836,-200.285C332.747,-205.761 328.055,-210.09 322.028,-213.373C299.099,-225.063 271.784,-220.293 247.761,-215.044C218.885,-208.738 190.656,-200.169 162.911,-190.02C105.277,-168.935 49.254,-142.72 -5.976,-116.066C-34.033,-102.523 -61.873,-88.531 -89.599,-74.32C-95.625,-71.232 -102.636,-68.589 -108.07,-64.543C-111.358,-62.094 -111.297,-57.72 -109.856,-54.309C-109.158,-52.649 -108.181,-51.016 -107.09,-49.435C-106.477,-48.475 -105.619,-47.324 -104.896,-46.489C-104.076,-45.453 -103.241,-44.455 -102.443,-43.509C-99.85,-40.45 -96.457,-38.955 -92.455,-39.782C-89.474,-40.399 -86.488,-42.6 -83.81,-43.983C-80.528,-45.674 -77.246,-47.363 -73.965,-49.047C-66.847,-52.707 -59.722,-56.348 -52.59,-59.975C-38.865,-66.957 -25.105,-73.868 -11.305,-80.693C16.308,-94.348 44.118,-107.6 72.205,-120.258C100.269,-132.906 128.636,-144.885 157.337,-156.008C185.356,-166.867 213.566,-177.715 242.761,-184.992C257.276,-188.608 272.075,-191.087 287.01,-191.991C293.855,-192.406 300.734,-192.458 307.541,-191.542C310.751,-191.11 313.869,-190.247 316.908,-189.145C318.385,-188.608 319.778,-187.869 321.158,-187.125C321.606,-186.767 321.976,-186.483 322.294,-186.258C324.361,-180.276 322.975,-172.813 321.652,-166.856C320.039,-159.55 317.027,-152.574 313.841,-145.839C307.808,-133.071 300.548,-120.826 292.93,-108.95C266.417,-67.63 232.746,-30.15 198.041,4.426C180.942,21.463 162.473,37.205 142.015,50.081C126.11,60.084 106.595,70.325 87.231,69.423C104.051,52.033 118.483,32.229 127.829,9.809C132.432,-1.229 136.264,-13.602 135.689,-25.679C135.241,-35.127 131.196,-42.912 125.731,-50.409C120.529,-57.538 114.697,-62.58 105.396,-62.369C94.773,-62.128 84.364,-54.987 76.646,-48.295C59.768,-33.652 48.783,-12.231 41.722,8.642C35.191,27.945 35.397,49.047 45.977,66.722C35.058,75.126 21.853,83.362 8.48,86.916C7.681,87.129 6.835,87.322 5.98,87.438C6.052,84.35 6.505,81.263 7.042,78.232C9.307,65.434 14.916,53.461 19.205,41.276C25.752,22.69 30.579,1.06 23.449,-18.049C20.19,-26.787 13.769,-35.445 7.091,-41.876C-0.707,-49.386 -11.784,-54.263 -22.609,-51.718C-33.215,-49.221 -41.044,-39.671 -46.838,-31.091C-48.463,-28.685 -49.931,-26.176 -51.368,-23.657C-52.372,-21.897 -56.854,-27.247 -57.714,-28.006C-60.906,-30.81 -64.643,-33.042 -68.758,-34.143C-84.82,-38.441 -95.578,-17.763 -101.162,-6.276C-104.732,1.058 -107.672,8.678 -110.822,16.197C-116.824,30.519 -122.999,44.766 -129.254,58.977C-134.747,71.458 -139.485,84.305 -146.137,96.241C-149.186,101.704 -152.772,107.76 -157.78,111.622C-162.391,115.172 -167.586,112.906 -171.443,109.552C-158.078,83.976 -148.739,56.273 -137.314,29.799C-134.287,22.783 -131.269,15.754 -128.248,8.732C-125.848,3.145 -122.048,-2.964 -121.13,-9.035C-120.57,-12.736 -123.567,-16.23 -125.533,-19.002C-127.907,-22.354 -130.058,-25.493 -134.092,-26.828C-137.741,-28.037 -141.742,-26.88 -144.468,-24.314C-145.305,-23.521 -145.562,-22.01 -145.924,-20.976C-145.881,-21.095 -149.836,-22.459 -150.122,-22.555C-153.396,-23.677 -156.817,-24.31 -160.24,-24.762C-172.642,-26.393 -185.368,-23.368 -196.601,-18.215C-219.805,-7.568 -236.112,14.882 -247.701,36.83C-258.188,56.7 -264.504,78.366 -274.848,98.334C-279.536,107.381 -285.141,117.488 -293.077,124.118C-294.452,125.266 -298.92,129.051 -302.771,131.108C-302.437,128.909 -301.945,126.817 -301.587,125.24C-300.178,119.017 -297.815,112.898 -295.844,106.836C-291.747,94.264 -287.592,81.67 -282.931,69.294C-275.623,49.884 -265.408,27.706 -277.651,8.049C-281.551,1.796 -285.891,-4.621 -292.108,-8.765C-297.994,-12.688 -305.317,-13.817 -312.253,-13.568C-328.273,-12.988 -343.382,-4.297 -353.135,8.133C-362.771,-2.976 -376.069,-6.83 -390.901,-3.965C-406.595,-0.931 -418.587,10.977 -427.444,23.572C-434.284,15.493 -443.547,9.438 -454.562,10.176C-462.9,10.734 -469.315,17.426 -473.934,23.753C-484.475,38.191 -489.161,55.977 -495.538,72.42C-504.54,95.641 -511.188,119.948 -523.633,141.685C-526.524,146.738 -529.837,151.53 -533.498,156.047C-537.123,160.52 -541.567,165.335 -547.825,164.69C-548.41,164.627 -548.968,164.441 -549.504,164.209C-549.811,162.222 -549.687,160.148 -549.419,158.192C-549.029,155.292 -546.51,151.964 -545.229,149.337C-543.42,145.638 -541.689,141.902 -539.983,138.151C-527.709,111.18 -517.912,83.161 -507.408,55.475C-504.917,48.913 -502.375,42.372 -499.765,35.856C-498.087,31.664 -496.811,28.403 -499.418,24.38C-499.597,24.103 -499.779,23.821 -499.961,23.54C-499.802,22.421 -503.448,16.995 -504.318,17.4C-507.442,13.741 -511.288,11.278 -516.896,12.897C-521.852,14.327 -523.235,19.59 -524.953,23.804C-528.081,31.481 -531.209,39.159 -534.339,46.837C-540.353,61.599 -546.368,76.363 -552.382,91.128C-558.264,105.563 -563.664,120.329 -570.12,134.514C-574.79,144.774 -579.645,154.991 -587.174,163.51C-594.122,171.377 -603.45,176.018 -614.048,174.839C-616.987,174.513 -619.836,173.628 -622.367,172.104C-622.577,171.973 -622.779,171.833 -622.98,171.689C-622.989,171.669 -622.998,171.651 -623.006,171.633C-627.588,158.908 -623.64,143.091 -620.407,130.539C-613.147,102.334 -601.023,75.034 -587.778,49.161C-583.726,41.242 -588.876,34.995 -594.054,28.876C-596.28,26.253 -599.135,24.631 -602.62,24.564C-608.461,24.461 -610.665,31.394 -612.767,35.583C-625.26,60.469 -635.644,86.703 -642.824,113.624C-647.497,131.134 -650.962,150.676 -645.449,168.389C-642.887,176.615 -637.309,184.613 -631.539,190.908C-624.433,198.663 -614.414,203.102 -603.924,203.497C-587.922,204.101 -573.884,193.092 -564.127,181.481C-561.017,185.281 -557.383,188.425 -552.345,190.087C-544.054,192.82 -534.574,190.839 -526.789,187.49C-507.499,179.195 -497.532,155.54 -490.099,137.387C-480.884,114.886 -473.834,91.595 -464.098,69.286C-461.529,63.403 -458.655,57.682 -455.804,51.936C-453.679,47.65 -451.708,42.664 -447.648,39.835C-446.248,38.859 -444.566,38.844 -442.958,39.082C-442.45,39.154 -441.935,39.325 -441.425,39.543C-440.703,44.098 -441.857,49.158 -443.654,53.328C-443.669,53.365 -443.657,53.42 -443.663,53.467C-456.307,81.934 -467.917,110.898 -479.986,139.618C-482.933,146.639 -485.887,153.662 -488.835,160.683C-490.659,165.028 -490.267,167.695 -487.702,171.557C-483.729,177.54 -478.235,185.985 -469.749,182.56C-465.035,180.657 -463.407,172.354 -461.635,168.237C-458.357,160.623 -455.097,153.001 -451.844,145.377C-445.72,131.022 -439.644,116.648 -433.659,102.238C-423.26,77.19 -414.668,48.4 -393.734,29.824C-385.221,22.267 -374.465,19.302 -364.633,25.695C-364.506,26.818 -364.633,27.923 -364.838,29.105C-365.293,31.725 -367.1,34.636 -368.096,37.12C-371.038,44.448 -374.005,51.77 -376.967,59.092C-388.599,87.845 -400.222,116.596 -411.85,145.35C-413.463,149.337 -415.767,153.238 -413.677,157.439C-411.79,161.228 -408.904,165.157 -405.904,168.148C-403.656,170.386 -400.156,170.954 -397.142,170.592C-391.816,169.959 -389.91,165.384 -388.141,161.013C-376.137,131.337 -364.136,101.663 -352.136,71.987C-347.324,60.084 -343.353,47.178 -336.947,36.041C-332.535,28.376 -326.913,22.395 -319.05,18.268C-313.161,15.174 -305.846,13.198 -299.303,15.19C-298.719,15.365 -298.161,15.613 -297.621,15.887C-297.594,16.039 -297.56,16.189 -297.53,16.339C-296.491,21.7 -297.843,27.416 -298.982,32.633C-304.942,59.978 -320.413,84.204 -325.903,111.719C-327.631,120.361 -328.003,129.616 -325.174,138.064C-322.856,145 -317.042,153.382 -310.811,157.291C-302.356,162.594 -290.418,158.889 -282.511,154.427C-272.482,148.763 -265.024,139.149 -258.926,129.534C-255.315,135.339 -250.779,140.741 -245.724,144.688C-238.302,150.488 -228.761,151.675 -219.717,150.109C-209.772,148.387 -200.549,143.134 -192.715,136.967C-191.664,136.142 -182.263,127.23 -182.021,127.516C-178.652,131.477 -174.613,134.754 -170.063,137.26C-161.109,142.186 -150.632,141.641 -141.928,136.547C-131.285,130.315 -125.053,117.461 -119.31,107.063C-105.971,82.909 -96.529,56.804 -86.539,31.161C-82.926,21.893 -79.515,12.455 -75.604,3.315C-74.194,0.02 -72.365,-3.566 -69.182,-5.446C-66.531,-7.006 -63.668,-5.424 -61.281,-3.206C-70.977,20.665 -80.603,44.563 -90.263,68.444C-96.143,82.98 -102.727,97.42 -107.91,112.215C-109.086,115.568 -107.334,118.409 -105.551,121.094C-103.323,124.447 -101.012,128.39 -97.393,130.394C-94.356,132.08 -90.527,131.747 -87.514,130.264C-82.355,127.727 -80.873,119.507 -78.936,114.724C-72.959,99.949 -66.984,85.175 -61.01,70.405C-55.081,55.74 -49.147,41.078 -43.217,26.413C-38.027,13.581 -33.475,0.191 -26.043,-11.563C-20.354,-20.563 -9.146,-26.955 0.262,-20.288C0.693,-19.095 1.001,-17.848 1.278,-16.619C1.79,-14.378 1.989,-12.068 2.136,-9.781C2.435,-5.082 2.046,-0.334 1.443,4.327C-0.832,22.045 -10.322,38.637 -15.52,55.597C-18.238,64.466 -20.267,73.774 -19.629,83.093C-19.035,91.818 -14.61,98.786 -9.47,105.605C-3.538,113.48 3.148,117.504 13.271,116.002C23.963,114.414 34.693,108.588 44.146,103.58C50.319,100.312 56.126,96.371 61.724,92.208C63.13,91.16 64.507,90.069 65.882,88.981C65.961,88.918 69.507,91.113 69.796,91.273C73.1,93.072 76.662,94.33 80.267,95.358C91.427,98.546 103.358,98.002 114.596,95.571C138.526,90.395 159.939,75.927 178.868,61.005C221.873,27.113 259.951,-14.241 292.64,-58.026C304.83,-74.362 316.232,-91.331 326.542,-108.917C333.298,-120.429 339.279,-132.466 343.523,-145.14C347.603,-157.315 349.977,-170.733 346.421,-183.321" style="fill:rgb(36,47,58);fill-rule:nonzero;"/>
            </g>
        </g>
    </g>
</svg>
