<?xml version="1.0" encoding="UTF-8" standalone="no"?>
<!DOCTYPE svg PUBLIC "-//W3C//DTD SVG 1.1//EN" "http://www.w3.org/Graphics/SVG/1.1/DTD/svg11.dtd">
<svg width="100%" height="100%" viewBox="0 0 720 332" version="1.1" xmlns="http://www.w3.org/2000/svg" xmlns:xlink="http://www.w3.org/1999/xlink" xml:space="preserve" xmlns:serif="http://www.serif.com/" style="fill-rule:evenodd;clip-rule:evenodd;stroke-linejoin:round;stroke-miterlimit:2;">
    <g transform="matrix(1.44,0,0,1.44,0,0)">
        <g transform="matrix(0.29387,0,0,0.29387,-1142.8,-252.337)">
            <g transform="matrix(1.38889,0,0,1.38889,4859.25,1551.92)">
                <path d="M0,-0.004C0,-21.818 16.52,-36.532 38.229,-36.532C55.275,-36.532 64.488,-26.899 69.04,-17.689L53.369,-10.172C51.041,-15.781 45.004,-20.444 38.229,-20.444C26.686,-20.444 18.532,-11.652 18.532,-0.004C18.532,11.539 26.686,20.43 38.229,20.43C45.004,20.43 51.041,15.772 53.369,10.16L69.04,17.575C64.488,26.57 55.275,36.528 38.229,36.528C16.52,36.528 0,21.705 0,-0.004" style="fill:white;fill-rule:nonzero;"/>
            </g>
            <g transform="matrix(1.38889,0,0,1.38889,5060.71,1551.92)">
                <path d="M0,-0.004C0,-11.544 -7.516,-20.444 -19.168,-20.444C-30.814,-20.444 -38.438,-11.544 -38.438,-0.004C-38.438,11.432 -30.814,20.43 -19.168,20.43C-7.516,20.43 0,11.432 0,-0.004M-56.969,-0.004C-56.969,-21.502 -40.769,-36.532 -19.168,-36.532C2.435,-36.532 18.533,-21.502 18.533,-0.004C18.533,21.491 2.435,36.528 -19.168,36.528C-40.769,36.528 -56.969,21.491 -56.969,-0.004" style="fill:white;fill-rule:nonzero;"/>
            </g>
            <g transform="matrix(1.38889,0,0,1.38889,5188.19,1551.91)">
                <path d="M0,-0.109C0,-11.011 -6.566,-19.484 -19.484,-19.484L-31.025,-19.484L-31.025,19.375L-19.594,19.375C-7.202,19.375 0,10.377 0,-0.109M-49.241,35.26L-49.241,-35.369L-19.594,-35.369C2.646,-35.369 18.637,-22.027 18.637,-0.109C18.637,21.812 2.646,35.26 -19.484,35.26L-49.241,35.26Z" style="fill:white;fill-rule:nonzero;"/>
            </g>
            <g transform="matrix(1.38889,0,0,1.38889,5247.28,1502.79)">
                <path d="M0,70.629L0,0L51.778,0L51.778,15.885L18.218,15.885L18.218,26.894L51.041,26.894L51.041,42.78L18.218,42.78L18.218,54.744L51.778,54.744L51.778,70.629L0,70.629Z" style="fill:white;fill-rule:nonzero;"/>
            </g>
            <g transform="matrix(1.38889,0,0,1.38889,4756.64,1026.94)">
                <path d="M0,320.837C-0.053,320.615 -0.113,320.396 -0.185,320.177C0.262,320.669 0.305,321.009 0,320.837M-618.184,385.79C-618.021,385.911 -617.854,386.027 -617.687,386.141C-617.309,387.136 -617.789,387.105 -618.184,385.79M-389.502,-104.984C-389.57,-105.263 -389.649,-105.535 -389.743,-105.805C-389.189,-105.222 -389.146,-104.807 -389.502,-104.984M-18.954,311.18C-37.323,328.198 -59.146,340.834 -81.662,351.529C-105.261,362.744 -129.839,372.248 -154.713,380.214C-181.751,388.868 -209.44,395.404 -237.338,400.611C-264.95,405.761 -292.887,409.852 -320.995,410.614C-346.603,411.307 -374.104,409.558 -398.111,399.909C-407.422,396.166 -416.043,390.793 -423.372,383.934C-430.799,376.982 -434.272,367.515 -436.147,357.667C-441.178,331.264 -429.038,305.673 -419.012,281.947C-413.68,269.333 -408.572,256.665 -403.542,243.931C-398.895,232.169 -393.808,220.585 -390.542,208.335C-386.403,192.797 -386.593,176.664 -395.401,162.807C-403.272,150.424 -412.813,141.602 -426.749,136.588C-441.246,131.37 -457.658,129.925 -472.518,134.286C-479.947,136.467 -486.728,140.145 -492.942,144.672C-472.435,98.488 -451.926,52.309 -431.404,6.135C-419.233,-21.256 -407.056,-48.644 -394.876,-76.029C-392.062,-82.363 -388.95,-88.645 -386.448,-95.107C-384.982,-98.894 -386.798,-102.556 -388.854,-105.654C-392.462,-111.082 -398.46,-120.892 -406.357,-116.326C-408.297,-115.201 -409.187,-112.92 -410.044,-110.997C-411.516,-107.691 -412.983,-104.385 -414.455,-101.082C-417.64,-93.923 -420.82,-86.762 -424.005,-79.601C-430.128,-65.834 -436.25,-52.062 -442.371,-38.293C-454.61,-10.752 -466.85,16.789 -479.087,44.333C-503.558,99.418 -528.017,154.509 -552.476,209.602C-558.591,223.375 -564.706,237.146 -570.818,250.918C-576.772,264.335 -583.508,277.358 -589.762,290.633C-602.062,316.742 -613.171,343.396 -623.811,370.216C-625.239,373.811 -625.348,376.51 -623.228,379.816C-620.873,383.487 -618.396,387.737 -614.889,390.443C-612.375,392.382 -609.065,393.046 -605.998,392.411C-600.752,391.321 -599.21,384.016 -597.389,379.923C-591.311,366.225 -585.229,352.527 -579.147,338.828C-573.083,325.166 -567.459,311.182 -560.843,297.778C-548.295,272.336 -535.177,247.042 -520.12,222.981C-512.8,211.289 -504.861,199.986 -496.204,189.247C-489.554,180.995 -482.166,173.25 -473.205,167.495C-465.063,162.266 -455.715,159.688 -446.074,159.623C-435.838,159.556 -423.609,161.95 -415.549,168.642C-415.398,169.034 -415.259,169.43 -415.12,169.823C-414.388,171.919 -414.072,174.133 -413.855,176.328C-413.41,180.89 -414.013,185.532 -414.858,190.006C-417.092,201.814 -421.897,213.258 -425.976,224.505C-430.938,238.191 -436.18,251.776 -441.479,265.338C-446.558,278.327 -452.858,290.868 -457.304,304.098C-465.081,327.248 -464.038,353.632 -453.397,375.689C-444.014,395.137 -428.626,411.314 -409.51,421.255C-388.008,432.438 -363.131,436.398 -339.215,438.011C-284.073,441.729 -228.539,429.919 -175.369,416.528C-128.854,404.816 -82.512,389.264 -41.163,364.549C-33.022,359.681 -25.146,354.373 -17.553,348.688C-13.818,345.886 -10.186,342.945 -6.623,339.93C-3.479,337.263 0.395,334.525 2.568,330.975C6.085,325.236 -0.679,317.934 -3.902,313.838C-7.802,308.884 -13.679,306.723 -18.954,311.18" style="fill:rgb(112,113,113);fill-rule:nonzero;"/>
            </g>
            <g transform="matrix(1.38889,0,0,1.38889,5106.67,1243.87)">
                <path d="M0,-20.961C-1.553,-22.853 -0.92,-23.137 0,-20.961M-101.557,125.26C-101.357,125.392 -101.153,125.515 -100.94,125.629C-100.523,126.818 -101.174,126.864 -101.557,125.26M-407.842,164.515C-407.624,164.651 -407.402,164.781 -407.172,164.9C-406.942,165.742 -407.507,165.67 -407.842,164.515M-483.388,176.391C-483.185,176.54 -482.98,176.683 -482.771,176.822C-482.455,177.806 -482.979,177.806 -483.388,176.391M-593.04,31.337C-593.185,31.224 -593.332,31.107 -593.482,31.002C-593.554,30.644 -593.313,30.746 -593.04,31.337M-622.623,172.562C-620.092,175.567 -621.45,175.112 -622.623,172.562M-127.907,-20.869C-128.09,-20.992 -128.276,-21.111 -128.466,-21.219C-128.669,-22.004 -128.24,-21.992 -127.907,-20.869M-242.15,119.631C-243.854,118.343 -243.75,117.192 -242.15,119.631M-231.957,123.484C-234.077,123.26 -236.129,122.57 -238.113,121.822C-239.284,121.379 -240.376,120.8 -241.424,120.125C-242.318,117.211 -242.54,114.06 -242.591,111.058C-242.728,103.198 -241.27,94.098 -238.205,86.852C-229.359,65.937 -220.83,44.219 -205.847,26.833C-192.879,11.787 -175.932,0.728 -156.613,3.498C-168.798,31.392 -180.984,59.289 -193.167,87.185C-199.763,102.639 -211.889,125.606 -231.957,123.484M103.378,-5.191C93.679,16.959 79.005,36.677 61.57,53.348C59.668,40.436 65.002,25.835 69.936,14.735C76.395,0.198 85.3,-14.596 96.895,-25.645C99.803,-28.414 102.907,-31.005 106.428,-32.965C107.967,-33.82 109.625,-34.356 111.381,-34.492C111.402,-34.495 111.424,-34.492 111.445,-34.492C112.634,-24.76 106.949,-13.342 103.378,-5.191M346.421,-183.32C344.643,-189.602 340.695,-195.123 336.836,-200.284C332.747,-205.76 328.055,-210.09 322.028,-213.373C299.099,-225.063 271.784,-220.293 247.761,-215.043C218.885,-208.738 190.656,-200.168 162.911,-190.02C105.277,-168.935 49.254,-142.72 -5.976,-116.065C-34.033,-102.522 -61.873,-88.53 -89.599,-74.319C-95.625,-71.231 -102.636,-68.589 -108.07,-64.543C-111.358,-62.094 -111.297,-57.719 -109.856,-54.309C-109.158,-52.649 -108.181,-51.016 -107.09,-49.434C-106.477,-48.475 -105.619,-47.324 -104.896,-46.488C-104.076,-45.452 -103.241,-44.455 -102.443,-43.508C-99.85,-40.449 -96.457,-38.955 -92.455,-39.781C-89.474,-40.399 -86.488,-42.6 -83.81,-43.982C-80.528,-45.674 -77.246,-47.363 -73.965,-49.047C-66.847,-52.706 -59.722,-56.348 -52.59,-59.975C-38.865,-66.956 -25.105,-73.867 -11.305,-80.693C16.308,-94.348 44.118,-107.6 72.205,-120.258C100.269,-132.906 128.636,-144.885 157.337,-156.008C185.356,-166.867 213.566,-177.715 242.761,-184.991C257.276,-188.607 272.075,-191.086 287.01,-191.99C293.855,-192.405 300.734,-192.457 307.541,-191.541C310.751,-191.109 313.869,-190.246 316.908,-189.145C318.385,-188.607 319.778,-187.869 321.158,-187.125C321.606,-186.767 321.976,-186.482 322.294,-186.258C324.361,-180.275 322.975,-172.813 321.652,-166.856C320.039,-159.55 317.027,-152.573 313.841,-145.838C307.808,-133.07 300.548,-120.825 292.93,-108.949C266.417,-67.63 232.746,-30.15 198.041,4.427C180.942,21.464 162.473,37.205 142.015,50.082C126.11,60.085 106.595,70.325 87.231,69.424C104.051,52.033 118.483,32.229 127.829,9.81C132.432,-1.229 136.264,-13.602 135.689,-25.678C135.241,-35.127 131.196,-42.912 125.731,-50.408C120.529,-57.537 114.697,-62.579 105.396,-62.369C94.773,-62.127 84.364,-54.986 76.646,-48.295C59.768,-33.652 48.783,-12.231 41.722,8.643C35.191,27.945 35.397,49.048 45.977,66.723C35.058,75.127 21.853,83.362 8.48,86.917C7.681,87.13 6.835,87.322 5.98,87.438C6.052,84.351 6.505,81.264 7.042,78.232C9.307,65.435 14.916,53.462 19.205,41.276C25.752,22.69 30.579,1.06 23.449,-18.049C20.19,-26.786 13.769,-35.445 7.091,-41.875C-0.707,-49.385 -11.784,-54.263 -22.609,-51.717C-33.215,-49.221 -41.044,-39.671 -46.838,-31.09C-48.463,-28.685 -49.931,-26.176 -51.368,-23.656C-52.372,-21.897 -56.854,-27.246 -57.714,-28.006C-60.906,-30.809 -64.643,-33.041 -68.758,-34.143C-84.82,-38.441 -95.578,-17.762 -101.162,-6.275C-104.732,1.059 -107.672,8.679 -110.822,16.197C-116.824,30.519 -122.999,44.767 -129.254,58.977C-134.747,71.459 -139.485,84.306 -146.137,96.241C-149.186,101.704 -152.772,107.761 -157.78,111.623C-162.391,115.173 -167.586,112.906 -171.443,109.553C-158.078,83.977 -148.739,56.273 -137.314,29.8C-134.287,22.783 -131.269,15.755 -128.248,8.732C-125.848,3.145 -122.048,-2.964 -121.13,-9.034C-120.57,-12.735 -123.567,-16.229 -125.533,-19.002C-127.907,-22.354 -130.058,-25.492 -134.092,-26.827C-137.741,-28.037 -141.742,-26.879 -144.468,-24.313C-145.305,-23.521 -145.562,-22.01 -145.924,-20.976C-145.881,-21.094 -149.836,-22.458 -150.122,-22.555C-153.396,-23.676 -156.817,-24.31 -160.24,-24.762C-172.642,-26.393 -185.368,-23.367 -196.601,-18.215C-219.805,-7.568 -236.112,14.883 -247.701,36.831C-258.188,56.7 -264.504,78.366 -274.848,98.335C-279.536,107.382 -285.141,117.488 -293.077,124.118C-294.452,125.267 -298.92,129.052 -302.771,131.108C-302.437,128.909 -301.945,126.817 -301.587,125.24C-300.178,119.018 -297.815,112.898 -295.844,106.837C-291.747,94.265 -287.592,81.671 -282.931,69.295C-275.623,49.885 -265.408,27.707 -277.651,8.05C-281.551,1.797 -285.891,-4.621 -292.108,-8.764C-297.994,-12.688 -305.317,-13.816 -312.253,-13.567C-328.273,-12.988 -343.382,-4.297 -353.135,8.134C-362.771,-2.976 -376.069,-6.83 -390.901,-3.965C-406.595,-0.93 -418.587,10.977 -427.444,23.572C-434.284,15.493 -443.547,9.438 -454.562,10.177C-462.9,10.734 -469.315,17.427 -473.934,23.754C-484.475,38.191 -489.161,55.977 -495.538,72.421C-504.54,95.642 -511.188,119.948 -523.633,141.685C-526.524,146.738 -529.837,151.53 -533.498,156.048C-537.123,160.52 -541.567,165.336 -547.825,164.69C-548.41,164.628 -548.968,164.441 -549.504,164.21C-549.811,162.223 -549.687,160.148 -549.419,158.192C-549.029,155.293 -546.51,151.965 -545.229,149.338C-543.42,145.639 -541.689,141.902 -539.983,138.151C-527.709,111.181 -517.912,83.161 -507.408,55.476C-504.917,48.914 -502.375,42.373 -499.765,35.856C-498.087,31.665 -496.811,28.403 -499.418,24.381C-499.597,24.103 -499.779,23.821 -499.961,23.541C-499.802,22.422 -503.448,16.995 -504.318,17.4C-507.442,13.741 -511.288,11.278 -516.896,12.897C-521.852,14.327 -523.235,19.591 -524.953,23.805C-528.081,31.481 -531.209,39.159 -534.339,46.838C-540.353,61.6 -546.368,76.363 -552.382,91.129C-558.264,105.563 -563.664,120.329 -570.12,134.515C-574.79,144.774 -579.645,154.991 -587.174,163.511C-594.122,171.378 -603.45,176.018 -614.048,174.84C-616.987,174.514 -619.836,173.629 -622.367,172.104C-622.577,171.974 -622.779,171.834 -622.98,171.689C-622.989,171.67 -622.998,171.651 -623.006,171.634C-627.588,158.908 -623.64,143.092 -620.407,130.54C-613.147,102.335 -601.023,75.034 -587.778,49.161C-583.726,41.242 -588.876,34.995 -594.054,28.877C-596.28,26.254 -599.135,24.632 -602.62,24.564C-608.461,24.462 -610.665,31.394 -612.767,35.584C-625.26,60.47 -635.644,86.703 -642.824,113.625C-647.497,131.135 -650.962,150.677 -645.449,168.39C-642.887,176.615 -637.309,184.613 -631.539,190.908C-624.433,198.664 -614.414,203.102 -603.924,203.498C-587.922,204.102 -573.884,193.093 -564.127,181.481C-561.017,185.281 -557.383,188.426 -552.345,190.088C-544.054,192.82 -534.574,190.84 -526.789,187.49C-507.499,179.195 -497.532,155.541 -490.099,137.388C-480.884,114.887 -473.834,91.596 -464.098,69.286C-461.529,63.403 -458.655,57.683 -455.804,51.936C-453.679,47.65 -451.708,42.665 -447.648,39.836C-446.248,38.859 -444.566,38.845 -442.958,39.083C-442.45,39.154 -441.935,39.325 -441.425,39.544C-440.703,44.099 -441.857,49.158 -443.654,53.328C-443.669,53.365 -443.657,53.421 -443.663,53.468C-456.307,81.935 -467.917,110.898 -479.986,139.618C-482.933,146.64 -485.887,153.662 -488.835,160.684C-490.659,165.028 -490.267,167.695 -487.702,171.558C-483.729,177.541 -478.235,185.985 -469.749,182.56C-465.035,180.657 -463.407,172.354 -461.635,168.237C-458.357,160.624 -455.097,153.002 -451.844,145.378C-445.72,131.022 -439.644,116.648 -433.659,102.238C-423.26,77.19 -414.668,48.4 -393.734,29.824C-385.221,22.268 -374.465,19.303 -364.633,25.695C-364.506,26.818 -364.633,27.924 -364.838,29.105C-365.293,31.726 -367.1,34.637 -368.096,37.12C-371.038,44.448 -374.005,51.77 -376.967,59.093C-388.599,87.846 -400.222,116.597 -411.85,145.351C-413.463,149.338 -415.767,153.238 -413.677,157.439C-411.79,161.228 -408.904,165.157 -405.904,168.148C-403.656,170.387 -400.156,170.954 -397.142,170.593C-391.816,169.96 -389.91,165.385 -388.141,161.014C-376.137,131.338 -364.136,101.664 -352.136,71.987C-347.324,60.085 -343.353,47.179 -336.947,36.042C-332.535,28.377 -326.913,22.395 -319.05,18.268C-313.161,15.175 -305.846,13.198 -299.303,15.19C-298.719,15.365 -298.161,15.613 -297.621,15.888C-297.594,16.04 -297.56,16.189 -297.53,16.34C-296.491,21.7 -297.843,27.417 -298.982,32.634C-304.942,59.978 -320.413,84.204 -325.903,111.72C-327.631,120.361 -328.003,129.616 -325.174,138.064C-322.856,145.001 -317.042,153.383 -310.811,157.292C-302.356,162.595 -290.418,158.89 -282.511,154.428C-272.482,148.764 -265.024,139.149 -258.926,129.534C-255.315,135.34 -250.779,140.741 -245.724,144.688C-238.302,150.488 -228.761,151.676 -219.717,150.109C-209.772,148.388 -200.549,143.135 -192.715,136.968C-191.664,136.143 -182.263,127.23 -182.021,127.517C-178.652,131.477 -174.613,134.755 -170.063,137.261C-161.109,142.186 -150.632,141.642 -141.928,136.548C-131.285,130.315 -125.053,117.462 -119.31,107.063C-105.971,82.909 -96.529,56.805 -86.539,31.161C-82.926,21.893 -79.515,12.456 -75.604,3.316C-74.194,0.021 -72.365,-3.565 -69.182,-5.445C-66.531,-7.006 -63.668,-5.424 -61.281,-3.205C-70.977,20.666 -80.603,44.563 -90.263,68.444C-96.143,82.98 -102.727,97.421 -107.91,112.216C-109.086,115.568 -107.334,118.409 -105.551,121.095C-103.323,124.447 -101.012,128.391 -97.393,130.394C-94.356,132.08 -90.527,131.748 -87.514,130.265C-82.355,127.727 -80.873,119.508 -78.936,114.725C-72.959,99.949 -66.984,85.176 -61.01,70.405C-55.081,55.74 -49.147,41.078 -43.217,26.414C-38.027,13.582 -33.475,0.191 -26.043,-11.563C-20.354,-20.563 -9.146,-26.954 0.262,-20.287C0.693,-19.095 1.001,-17.848 1.278,-16.619C1.79,-14.377 1.989,-12.067 2.136,-9.781C2.435,-5.081 2.046,-0.334 1.443,4.328C-0.832,22.046 -10.322,38.638 -15.52,55.598C-18.238,64.467 -20.267,73.774 -19.629,83.094C-19.035,91.818 -14.61,98.786 -9.47,105.605C-3.538,113.48 3.148,117.505 13.271,116.003C23.963,114.415 34.693,108.589 44.146,103.581C50.319,100.312 56.126,96.372 61.724,92.209C63.13,91.16 64.507,90.069 65.882,88.981C65.961,88.919 69.507,91.113 69.796,91.273C73.1,93.072 76.662,94.331 80.267,95.358C91.427,98.547 103.358,98.003 114.596,95.571C138.526,90.395 159.939,75.928 178.868,61.006C221.873,27.113 259.951,-14.24 292.64,-58.025C304.83,-74.361 316.232,-91.33 326.542,-108.916C333.298,-120.428 339.279,-132.465 343.523,-145.14C347.603,-157.315 349.977,-170.732 346.421,-183.32" style="fill:rgb(112,113,113);fill-rule:nonzero;"/>
            </g>
        </g>
    </g>
</svg>
